<svg xmlns="http://www.w3.org/2000/svg" xmlns:xlink="http://www.w3.org/1999/xlink" width="635" height="635"><defs><path id="a" d="M0 0h800v800H0z"/></defs><clipPath id="b"><use xlink:href="#a" overflow="visible"/></clipPath><path clip-path="url(#b)" fill="#FFF" d="M558.027 341.006c.485-14.769.421-12.763.906-27.53l-72.055-20.578-5.632-24.174 55.544-50.303-12.981-24.295-60.548 15.166-40.569 37.987a127.291 127.291 0 0111.759 21.039c13.629 30.929 14.397 65.313 2.166 96.819-12.233 31.508-36.003 56.365-66.932 69.994a128.057 128.057 0 01-13.66 5.113c-41.155 12.771-84.323 3.463-116.122-21.814l-40.582 38-19.104 59.377 23.388 14.551 53.849-52.113c10.659 3.236 13.093 3.975 23.752 7.209l15.792 73.254 27.529.906 20.577-72.055c10.85-2.527 13.326-3.105 24.176-5.631l50.303 55.543 24.295-12.98-18.207-72.689c8.13-7.613 9.988-9.354 18.12-16.965l71.335 22.949 14.549-23.387-52.111-53.849 7.209-23.752 73.254-15.792z"/><path clip-path="url(#b)" fill="#FFF" d="M393.843 279.892a86.82 86.82 0 00-4.661-9.044l-3.898 3.648-2.854 2.674-2.861 2.68-102.512 95.985-2.872 2.69-2.823 2.643-3.91 3.66c23.579 16.073 54.676 20.026 82.663 7.694 43.107-18.996 62.723-69.522 43.728-112.63M590.201 290.685l-66.728-19.055 51.438-46.584 15.29 65.639zm-22.053 139.61l-48.258-49.868 67.837-14.622-19.579 64.49zm-88.899 109.879l-16.861-67.316 66.061 21.254-49.2 46.062zm-131.931 50.707l19.057-66.727 46.582 51.436-65.639 15.291zM207.709 568.83l49.868-48.26 14.625 67.836-64.493-19.576zm59.614 25.42l-13.336-61.857-45.472 44.006 58.808 17.851zm144.331-11.16l-42.477-46.902-17.377 60.846 59.854-13.944zm119.414-81.832l-60.234-19.381 15.374 61.381 44.86-42zm62.502-130.576l-61.856 13.335 44.004 45.469 17.852-58.804zM582.409 226.35l-46.901 42.477 60.843 17.375-13.942-59.852z"/><path clip-path="url(#b)" fill="#FFF" d="M232.129 410.955l-42.842 39.115-22.765 70.76 38.63 24.033 55.439-53.65 10.801 3.279 16.257 75.412 45.472 1.498 21.185-74.179 10.994-2.561 51.786 57.182 40.13-21.442-18.744-74.832 8.24-7.715 73.438 23.627 24.033-38.632-53.65-55.435 3.28-10.801 75.414-16.258 1.497-45.474-74.18-21.184-2.562-10.993 57.183-51.787-21.44-40.129-72.148 18.071-40.399 41.743-4.049-5.668 40.987-42.425 79.207-19.839 26.589 49.768-58.179 52.689.694 2.971 75.472 21.553-1.856 56.395-76.729 16.541-.885 2.918 54.584 56.402-29.806 47.912-74.719-24.041-2.225 2.086 19.07 76.139-49.769 26.588-52.688-58.178-2.972.691-21.552 75.473-56.394-1.855-16.541-76.729-2.918-.887-56.404 54.586-47.91-29.806 24.995-77.688 42.643-39.928z"/><path clip-path="url(#b)" fill="#FFF" d="M558.027 341.006c.485-14.769.421-12.763.906-27.53l-72.055-20.578-5.632-24.174 55.544-50.303-12.981-24.295-60.548 15.166-40.569 37.987a127.291 127.291 0 0111.759 21.039c13.629 30.929 14.397 65.313 2.166 96.819-12.233 31.508-36.003 56.365-66.932 69.994a128.057 128.057 0 01-13.66 5.113c-41.155 12.771-84.323 3.463-116.122-21.814l-40.582 38-19.104 59.377 23.388 14.551 53.849-52.113c10.659 3.236 13.093 3.975 23.752 7.209l15.792 73.254 27.529.906 20.577-72.055c10.85-2.527 13.326-3.105 24.176-5.631l50.303 55.543 24.295-12.98-18.207-72.689c8.13-7.613 9.988-9.354 18.12-16.965l71.335 22.949 14.549-23.387-52.111-53.849 7.209-23.752 73.254-15.792zM76.972 293.996l-.906 27.53 72.055 20.576 5.632 24.175L98.21 416.58l12.98 24.295 60.549-15.166 40.569-37.988a127.291 127.291 0 01-11.759-21.039c-13.63-30.929-14.399-65.313-2.167-96.819 12.233-31.507 36.002-56.365 66.931-69.994a128.273 128.273 0 0113.66-5.113c41.155-12.772 84.324-3.464 116.122 21.813l40.582-37.999 19.103-59.378-23.388-14.55-53.85 52.114-23.752-7.21-15.792-73.254-27.53-.906-20.577 72.055-24.174 5.632-50.302-55.543-24.295 12.98 18.208 72.691-18.12 16.964-71.335-22.95-14.55 23.388 52.113 53.849-7.21 23.752-73.254 15.792z"/><path clip-path="url(#b)" fill="#FFF" d="M242.158 354.108a86.935 86.935 0 004.661 9.045l3.898-3.648 2.855-2.674 2.861-2.68 102.511-95.986 2.871-2.69 2.823-2.643 3.91-3.66c-23.579-16.072-54.676-20.026-82.662-7.693-43.108 18.996-62.724 69.521-43.728 112.629M44.799 344.317l66.727 19.055-51.436 46.583-15.291-65.638zm22.052-139.61l48.258 49.866-67.837 14.625 19.579-64.491zm88.899-109.88l16.862 67.315-66.061-21.253 49.199-46.062zm131.931-50.709l-19.057 66.727-46.582-51.436 65.639-15.291zm139.608 22.051l-49.867 48.259-14.625-67.836 64.492 19.577zM367.676 40.75l13.336 61.856L426.483 58.6l-58.807-17.85zM223.345 51.91l42.477 46.902 17.376-60.845-59.853 13.943zM103.93 133.742l60.236 19.381-15.375-61.381-44.861 42zm-62.5 130.577l61.856-13.335-44.004-45.47-17.852 58.805zM52.592 408.65l46.9-42.476-60.843-17.375 13.943 59.851z"/><path clip-path="url(#b)" fill="#FFF" d="M222.805 402.549l-42.357 40.369-78.771 19.412-26.589-49.767 58.179-52.689-.693-2.972-75.472-21.554 1.855-56.394 76.729-16.541.885-2.918-54.584-56.403 29.805-47.911 74.718 24.039 2.227-2.085-19.071-76.137 49.769-26.59 52.688 58.178 2.97-.692 21.554-75.473 56.393 1.857 16.541 76.727 2.918.886 56.405-54.585 47.91 29.805-24.994 77.687-44.249 41.432-4.704-5.184 42.845-40.118 22.765-70.759-38.631-24.033-55.438 53.649-10.801-3.278-16.257-75.413-45.473-1.498-21.184 74.181-10.994 2.561-51.786-57.181-40.13 21.44 18.745 74.833-8.24 7.715-73.438-23.627-24.033 38.633 53.648 55.436-3.277 10.8-75.414 16.258-1.497 45.474 74.18 21.182 2.562 10.994-57.183 51.787 21.441 40.129 68.1-14.283 44.462-41.632z"/><path clip-path="url(#b)" fill="#FFF" d="M76.972 293.996l-.906 27.53 72.055 20.576 5.632 24.175L98.21 416.58l12.98 24.295 60.549-15.166 40.569-37.988a127.291 127.291 0 01-11.759-21.039c-13.63-30.929-14.399-65.313-2.167-96.819 12.233-31.507 36.002-56.365 66.931-69.994a128.273 128.273 0 0113.66-5.113c41.155-12.772 84.324-3.464 116.122 21.813l40.582-37.999 19.103-59.378-23.388-14.55-53.85 52.114-23.752-7.21-15.792-73.254-27.53-.906-20.577 72.055-24.174 5.632-50.302-55.543-24.295 12.98 18.208 72.691-18.12 16.964-71.335-22.95-14.55 23.388 52.113 53.849-7.21 23.752-73.254 15.792z"/></svg>