<svg xmlns="http://www.w3.org/2000/svg" xmlns:xlink="http://www.w3.org/1999/xlink" width="2128" height="688"><path fill="#C32328" d="M1058.252 325.682h-68.525L885.133 206.383h98.211v-46.328h-107.09v165.627h-58.815V131.48h223.057v103.48h-61.588zM1112.324 325.682l-47.161-53.543V131.477h220.28v194.205h-173.119zm10.822-165.627v99.597l33.017 37.453h71.3v-137.05h-104.317zM1520.412 325.682h-212.795V131.477h195.874v74.076h16.921v120.129zm-154.806-120.129h96.819v-45.501h-96.819v45.501zm0 91.554h96.819v-62.973h-96.819v62.973zM1589.744 325.682l-47.161-53.543V131.477h220.28v194.205h-173.119zm10.82-165.627v99.597l33.015 37.453h71.299v-137.05h-104.314z"/><path fill="#1273BA" d="M1036.058 550.188l-24.972 28.578H817.439V384.561h218.34l-24.693 28.578H876.813v137.049zM1241.615 550.188l-24.972 28.578h-163.961V384.561h57.985v165.627zM1478.526 384.561v194.205h-58.267V496.09h-102.647v82.676h-59.37V384.561h220.284zm-160.084 82.676h100.433v-54.099h-100.433v54.099zM1722.088 549.358l-25.246 29.408h-175.06l-24.969-28.578h156.197l10.263-11.926v-42.45h-158.97v-80.458l26.357-30.793h198.088l-24.413 28.578H1574.77l-12.485 14.15v39.948h159.803zM1963.71 384.561v194.205h-58.54v-82.954h-100.433v82.954h-57.705V384.561h57.705v82.679h100.433v-82.679z"/><defs><path id="a" d="M1 2h800v800H1z"/></defs><clipPath id="b"><use xlink:href="#a" overflow="visible"/></clipPath><path clip-path="url(#b)" fill="#1572BA" d="M641.527 370.441l.907-27.53-72.057-20.578-5.631-24.174 55.543-50.303-12.979-24.295-60.548 15.166-40.57 37.987a127.364 127.364 0 0111.759 21.039c13.629 30.929 14.398 65.313 2.165 96.82-12.231 31.507-36.002 56.365-66.93 69.993a127.857 127.857 0 01-13.661 5.113c-41.156 12.772-84.324 3.463-116.121-21.813l-40.583 37.999-19.103 59.378 23.388 14.55 53.849-52.113 23.751 7.21 15.792 73.254 27.53.906 20.578-72.055 24.174-5.632 50.303 55.543 24.295-12.979-18.207-72.69 18.12-16.965 71.335 22.95 14.55-23.388-52.111-53.849c3.234-10.659 3.974-13.093 7.21-23.751l73.252-15.793z"/><path clip-path="url(#b)" fill="#202A5C" d="M477.342 309.327a86.813 86.813 0 00-4.66-9.044l-3.897 3.648-2.855 2.674-2.861 2.68-102.514 95.985-2.872 2.69-2.823 2.643-3.909 3.66c23.579 16.072 54.675 20.026 82.662 7.694 43.109-18.996 62.725-69.521 43.729-112.63"/><path clip-path="url(#b)" fill="#1572BA" d="M673.701 320.12l-66.728-19.055 51.437-46.584 15.291 65.639zm-22.053 139.609l-48.258-49.867 67.837-14.623-19.579 64.49zm-88.899 109.879l-16.861-67.315 66.06 21.254-49.199 46.061zm-131.932 50.707l19.058-66.727 46.582 51.437-65.64 15.29zm-139.609-22.05l49.868-48.259 14.625 67.836-64.493-19.577zm59.615 25.42l-13.336-61.856-45.472 44.005 58.808 17.851zm144.33-11.161l-42.476-46.902-17.377 60.846 59.853-13.944zm119.415-81.831l-60.234-19.381 15.374 61.381 44.86-42zm62.501-130.576l-61.855 13.335 44.004 45.47 17.851-58.805zm-11.161-144.332l-46.9 42.477 60.843 17.375-13.943-59.852z"/><path clip-path="url(#b)" fill="#1572BA" d="M315.63 440.39l-42.843 39.115-22.765 70.76 38.631 24.033 55.437-53.65 10.801 3.279 16.258 75.413 45.472 1.498 21.184-74.18 10.994-2.561 51.787 57.181 40.129-21.44-18.744-74.833 8.241-7.715 73.438 23.628 24.032-38.633-53.648-55.435 3.278-10.802 75.414-16.257 1.497-45.474-74.179-21.184-2.563-10.993 57.184-51.787-21.441-40.129-72.146 18.071-40.401 41.743-4.048-5.668 40.988-42.425 79.207-19.839 26.589 49.768-58.179 52.689.692 2.971 75.472 21.553-1.855 56.395-76.73 16.541-.885 2.918 54.584 56.403-29.805 47.911-74.718-24.04-2.227 2.085 19.071 76.138-49.77 26.589-52.687-58.177-2.971.691-21.554 75.473-56.393-1.857-16.541-76.728-2.918-.886-56.405 54.585-47.91-29.806 24.995-77.687 42.644-39.929z"/><path clip-path="url(#b)" fill="#1572BA" d="M641.527 370.441l.907-27.53-72.057-20.578-5.631-24.174 55.543-50.303-12.979-24.295-60.548 15.166-40.57 37.987a127.364 127.364 0 0111.759 21.039c13.629 30.929 14.398 65.313 2.165 96.82-12.231 31.507-36.002 56.365-66.93 69.993a127.857 127.857 0 01-13.661 5.113c-41.156 12.772-84.324 3.463-116.121-21.813l-40.583 37.999-19.103 59.378 23.388 14.55 53.849-52.113 23.751 7.21 15.792 73.254 27.53.906 20.578-72.055 24.174-5.632 50.303 55.543 24.295-12.979-18.207-72.69 18.12-16.965 71.335 22.95 14.55-23.388-52.111-53.849c3.234-10.659 3.974-13.093 7.21-23.751l73.252-15.793zM160.473 323.431l-.907 27.53 72.056 20.577 5.632 24.174-55.543 50.303 12.98 24.295 60.548-15.166 40.57-37.987a127.188 127.188 0 01-11.759-21.04c-13.63-30.928-14.399-65.312-2.167-96.819 12.233-31.507 36.002-56.365 66.93-69.994a128.29 128.29 0 0113.661-5.113c41.156-12.772 84.324-3.464 116.121 21.813l40.583-37.999 19.103-59.378-23.389-14.55-53.848 52.114-23.752-7.21-15.792-73.254-27.53-.906-20.577 72.055-24.175 5.632-50.303-55.543-24.295 12.98 18.208 72.691-18.12 16.964-71.335-22.95-14.55 23.388 52.113 53.849-7.21 23.752-73.253 15.792z"/><path clip-path="url(#b)" fill="#202A5C" d="M325.658 383.543a86.733 86.733 0 004.662 9.044l3.897-3.648 2.855-2.674 2.861-2.68L442.444 287.6l2.872-2.69 2.823-2.643 3.909-3.66c-23.579-16.072-54.676-20.026-82.662-7.693-43.107 18.996-62.724 69.522-43.728 112.629"/><path clip-path="url(#b)" fill="#C22026" d="M128.3 373.751l66.727 19.055-51.437 46.584-15.29-65.639zm22.05-139.609l48.259 49.866-67.837 14.625 19.578-64.491zm88.9-109.88l16.861 67.315-66.06-21.253 49.199-46.062zm131.93-50.709l-19.056 66.727-46.582-51.436 65.638-15.291zm139.61 22.051l-49.868 48.259-14.625-67.836 64.493 19.577zm-59.615-25.419l13.337 61.856 45.471-44.005-58.808-17.851zm-144.331 11.16l42.477 46.902 17.377-60.845-59.854 13.943zM187.43 163.177l60.235 19.381-15.374-61.381-44.861 42zm-62.5 130.577l61.856-13.335-44.004-45.47-17.852 58.805zm11.162 144.332l46.901-42.477-60.844-17.375 13.943 59.852z"/><path clip-path="url(#b)" fill="#C22026" d="M306.306 431.984l-42.358 40.37-78.77 19.411-26.59-49.768 58.179-52.689-.692-2.971-75.474-21.553 1.856-56.395 76.729-16.541.886-2.918-54.585-56.403 29.805-47.911 74.719 24.039 2.226-2.085-19.071-76.137 49.768-26.59 52.689 58.178 2.971-.692 21.552-75.473 56.395 1.857 16.541 76.727 2.918.886 56.403-54.585 47.911 29.805-24.995 77.687-44.248 41.432-4.704-5.184 42.846-40.118 22.764-70.759-38.631-24.033-55.438 53.649-10.801-3.278-16.258-75.413-45.471-1.498-21.184 74.181-10.994 2.561-51.787-57.181-40.129 21.44 18.744 74.833-8.24 7.715-73.439-23.627-24.032 38.633 53.649 55.436-3.278 10.8-75.414 16.258-1.497 45.474 74.18 21.183 2.562 10.994-57.183 51.787 21.441 40.128 68.101-14.283 44.462-41.632z"/><path clip-path="url(#b)" fill="#C22026" d="M160.473 323.431l-.907 27.53 72.056 20.577 5.632 24.174-55.543 50.303 12.98 24.295 60.548-15.166 40.57-37.987a127.188 127.188 0 01-11.759-21.04c-13.63-30.928-14.399-65.312-2.167-96.819 12.233-31.507 36.002-56.365 66.93-69.994a128.29 128.29 0 0113.661-5.113c41.156-12.772 84.324-3.464 116.121 21.813l40.583-37.999 19.103-59.378-23.389-14.55-53.848 52.114-23.752-7.21-15.792-73.254-27.53-.906-20.577 72.055-24.175 5.632-50.303-55.543-24.295 12.98 18.208 72.691-18.12 16.964-71.335-22.95-14.55 23.388 52.113 53.849-7.21 23.752-73.253 15.792z"/></svg>