<?xml version="1.0" encoding="utf-8"?>
<!-- Generator: Adobe Illustrator 16.0.0, SVG Export Plug-In . SVG Version: 6.00 Build 0)  -->
<!DOCTYPE svg PUBLIC "-//W3C//DTD SVG 1.1//EN" "http://www.w3.org/Graphics/SVG/1.1/DTD/svg11.dtd">
<svg version="1.1" id="Layer_1" xmlns="http://www.w3.org/2000/svg" xmlns:xlink="http://www.w3.org/1999/xlink" x="0px" y="0px"
	 width="635px" height="635px" viewBox="0 0 635 635" enable-background="new 0 0 635 635" xml:space="preserve">
<g>
	<defs>
		<rect id="SVGID_1_" width="800" height="800"/>
	</defs>
	<clipPath id="SVGID_2_">
		<use xlink:href="#SVGID_1_"  overflow="visible"/>
	</clipPath>
	<path clip-path="url(#SVGID_2_)" fill="#FFFFFF" d="M558.027,341.006c0.485-14.769,0.421-12.763,0.906-27.53l-72.055-20.578
		c-2.528-10.848-3.105-13.326-5.632-24.174l55.544-50.303c-6.963-13.033-6.018-11.263-12.981-24.295l-60.548,15.166l-40.569,37.987
		c4.504,6.519,8.456,13.544,11.759,21.039c13.629,30.929,14.397,65.313,2.166,96.819c-12.233,31.508-36.003,56.365-66.932,69.994
		c-4.449,1.961-9.046,3.682-13.66,5.113c-41.155,12.771-84.323,3.463-116.122-21.814l-40.582,38l-19.104,59.377
		c12.546,7.805,10.842,6.746,23.388,14.551l53.849-52.113c10.659,3.236,13.093,3.975,23.752,7.209l15.792,73.254
		c14.767,0.486,12.761,0.42,27.529,0.906l20.577-72.055c10.85-2.527,13.326-3.105,24.176-5.631l50.303,55.543
		c13.032-6.963,11.262-6.018,24.295-12.98l-18.207-72.689c8.13-7.613,9.988-9.354,18.12-16.965l71.335,22.949
		c7.804-12.545,6.745-10.842,14.549-23.387l-52.111-53.849c3.234-10.658,3.975-13.094,7.209-23.752L558.027,341.006z"/>
	<path clip-path="url(#SVGID_2_)" fill="#FFFFFF" d="M393.843,279.892c-1.38-3.132-2.951-6.14-4.661-9.044l-3.898,3.648
		l-2.854,2.674l-2.861,2.68l-102.512,95.985l-2.872,2.69l-2.823,2.643l-3.91,3.66c23.579,16.073,54.676,20.026,82.663,7.694
		C393.222,373.526,412.838,323,393.843,279.892"/>
	<path clip-path="url(#SVGID_2_)" fill="#FFFFFF" d="M590.201,290.685l-66.728-19.055l51.438-46.584L590.201,290.685z
		 M568.148,430.295l-48.258-49.868l67.837-14.622L568.148,430.295z M479.249,540.174l-16.861-67.316l66.061,21.254L479.249,540.174z
		 M347.318,590.881l19.057-66.727l46.582,51.436L347.318,590.881z M207.709,568.83l49.868-48.26l14.625,67.836L207.709,568.83z
		 M267.323,594.25l-13.336-61.857l-45.472,44.006L267.323,594.25z M411.654,583.09l-42.477-46.902l-17.377,60.846L411.654,583.09z
		 M531.068,501.258l-60.234-19.381l15.374,61.381L531.068,501.258z M593.57,370.682l-61.856,13.335l44.004,45.469L593.57,370.682z
		 M582.409,226.35l-46.901,42.477l60.843,17.375L582.409,226.35z"/>
	<polygon clip-path="url(#SVGID_2_)" fill="#FFFFFF" points="232.129,410.955 189.287,450.07 166.522,520.83 205.152,544.863 
		260.591,491.213 271.392,494.492 287.649,569.904 333.121,571.402 354.306,497.223 365.3,494.662 417.086,551.844 457.216,530.402 
		438.472,455.57 446.712,447.855 520.15,471.482 544.183,432.85 490.533,377.415 493.813,366.614 569.227,350.356 570.724,304.882 
		496.544,283.698 493.982,272.705 551.165,220.918 529.725,180.789 457.577,198.86 417.178,240.603 413.129,234.935 454.116,192.51 
		533.323,172.671 559.912,222.439 501.733,275.128 502.427,278.099 577.899,299.652 576.043,356.047 499.314,372.588 
		498.429,375.506 553.013,431.908 523.207,479.82 448.488,455.779 446.263,457.865 465.333,534.004 415.564,560.592 
		362.876,502.414 359.904,503.105 338.352,578.578 281.958,576.723 265.417,499.994 262.499,499.107 206.095,553.693 
		158.185,523.887 183.18,446.199 225.823,406.271 	"/>
	<path clip-path="url(#SVGID_2_)" fill="#FFFFFF" d="M558.027,341.006c0.485-14.769,0.421-12.763,0.906-27.53l-72.055-20.578
		c-2.528-10.848-3.105-13.326-5.632-24.174l55.544-50.303c-6.963-13.033-6.018-11.263-12.981-24.295l-60.548,15.166l-40.569,37.987
		c4.504,6.519,8.456,13.544,11.759,21.039c13.629,30.929,14.397,65.313,2.166,96.819c-12.233,31.508-36.003,56.365-66.932,69.994
		c-4.449,1.961-9.046,3.682-13.66,5.113c-41.155,12.771-84.323,3.463-116.122-21.814l-40.582,38l-19.104,59.377
		c12.546,7.805,10.842,6.746,23.388,14.551l53.849-52.113c10.659,3.236,13.093,3.975,23.752,7.209l15.792,73.254
		c14.767,0.486,12.761,0.42,27.529,0.906l20.577-72.055c10.85-2.527,13.326-3.105,24.176-5.631l50.303,55.543
		c13.032-6.963,11.262-6.018,24.295-12.98l-18.207-72.689c8.13-7.613,9.988-9.354,18.12-16.965l71.335,22.949
		c7.804-12.545,6.745-10.842,14.549-23.387l-52.111-53.849c3.234-10.658,3.975-13.094,7.209-23.752L558.027,341.006z"/>
	<path clip-path="url(#SVGID_2_)" fill="#FFFFFF" d="M76.972,293.996c-0.486,14.768-0.42,12.762-0.906,27.53l72.055,20.576
		c2.528,10.849,3.105,13.326,5.632,24.175L98.21,416.58c6.963,13.033,6.017,11.262,12.98,24.295l60.549-15.166l40.569-37.988
		c-4.504-6.519-8.456-13.544-11.759-21.039c-13.63-30.929-14.399-65.313-2.167-96.819c12.233-31.507,36.002-56.365,66.931-69.994
		c4.449-1.961,9.046-3.681,13.66-5.113c41.155-12.772,84.324-3.464,116.122,21.813l40.582-37.999l19.103-59.378
		c-12.546-7.805-10.842-6.745-23.388-14.55l-53.85,52.114c-10.657-3.236-13.092-3.975-23.752-7.21l-15.792-73.254
		c-14.767-0.486-12.762-0.42-27.53-0.906l-20.577,72.055c-10.849,2.528-13.326,3.104-24.174,5.632L215.415,97.53
		c-13.032,6.963-11.262,6.017-24.295,12.98l18.208,72.691c-8.131,7.613-9.989,9.352-18.12,16.964l-71.335-22.95
		c-7.805,12.546-6.746,10.843-14.55,23.388l52.113,53.849c-3.235,10.658-3.975,13.093-7.21,23.752L76.972,293.996z"/>
	<path clip-path="url(#SVGID_2_)" fill="#FFFFFF" d="M242.158,354.108c1.38,3.131,2.951,6.141,4.661,9.045l3.898-3.648l2.855-2.674
		l2.861-2.68l102.511-95.986l2.871-2.69l2.823-2.643l3.91-3.66c-23.579-16.072-54.676-20.026-82.662-7.693
		C242.778,260.475,223.162,311,242.158,354.108"/>
	<path clip-path="url(#SVGID_2_)" fill="#FFFFFF" d="M44.799,344.317l66.727,19.055L60.09,409.955L44.799,344.317z M66.851,204.707
		l48.258,49.866l-67.837,14.625L66.851,204.707z M155.75,94.827l16.862,67.315l-66.061-21.253L155.75,94.827z M287.681,44.118
		l-19.057,66.727l-46.582-51.436L287.681,44.118z M427.289,66.169l-49.867,48.259l-14.625-67.836L427.289,66.169z M367.676,40.75
		l13.336,61.856L426.483,58.6L367.676,40.75z M223.345,51.91l42.477,46.902l17.376-60.845L223.345,51.91z M103.93,133.742
		l60.236,19.381l-15.375-61.381L103.93,133.742z M41.43,264.319l61.856-13.335l-44.004-45.47L41.43,264.319z M52.592,408.65
		l46.9-42.476l-60.843-17.375L52.592,408.65z"/>
	<polygon clip-path="url(#SVGID_2_)" fill="#FFFFFF" points="222.805,402.549 180.448,442.918 101.677,462.33 75.088,412.563 
		133.267,359.874 132.574,356.902 57.102,335.348 58.957,278.954 135.686,262.413 136.571,259.495 81.987,203.092 111.792,155.181 
		186.51,179.22 188.737,177.135 169.666,100.998 219.435,74.408 272.123,132.586 275.093,131.894 296.647,56.421 353.04,58.278 
		369.581,135.005 372.499,135.891 428.904,81.306 476.814,111.111 451.82,188.798 407.571,230.23 402.867,225.046 445.712,184.928 
		468.477,114.169 429.846,90.136 374.408,143.785 363.607,140.507 347.35,65.094 301.877,63.596 280.693,137.777 269.699,140.338 
		217.913,83.157 177.783,104.597 196.528,179.43 188.288,187.145 114.85,163.518 90.817,202.151 144.465,257.587 141.188,268.387 
		65.774,284.645 64.277,330.119 138.457,351.301 141.019,362.295 83.836,414.082 105.277,454.211 173.377,439.928 217.839,398.296 	
		"/>
	<path clip-path="url(#SVGID_2_)" fill="#FFFFFF" d="M76.972,293.996c-0.486,14.768-0.42,12.762-0.906,27.53l72.055,20.576
		c2.528,10.849,3.105,13.326,5.632,24.175L98.21,416.58c6.963,13.033,6.017,11.262,12.98,24.295l60.549-15.166l40.569-37.988
		c-4.504-6.519-8.456-13.544-11.759-21.039c-13.63-30.929-14.399-65.313-2.167-96.819c12.233-31.507,36.002-56.365,66.931-69.994
		c4.449-1.961,9.046-3.681,13.66-5.113c41.155-12.772,84.324-3.464,116.122,21.813l40.582-37.999l19.103-59.378
		c-12.546-7.805-10.842-6.745-23.388-14.55l-53.85,52.114c-10.657-3.236-13.092-3.975-23.752-7.21l-15.792-73.254
		c-14.767-0.486-12.762-0.42-27.53-0.906l-20.577,72.055c-10.849,2.528-13.326,3.104-24.174,5.632L215.415,97.53
		c-13.032,6.963-11.262,6.017-24.295,12.98l18.208,72.691c-8.131,7.613-9.989,9.352-18.12,16.964l-71.335-22.95
		c-7.805,12.546-6.746,10.843-14.55,23.388l52.113,53.849c-3.235,10.658-3.975,13.093-7.21,23.752L76.972,293.996z"/>
</g>
</svg>
